<svg viewBox="0 0 512 512" xmlns="http://www.w3.org/2000/svg"><path d="m471.95 253.05c0 120.9-98.01 218.9-218.9 218.9-120.9 0-218.9-98.01-218.9-218.9 0-120.9 98.01-218.9 218.9-218.9 120.9 0 218.9 98.01 218.9 218.9" fill="#0078ad" fill-rule="evenodd"/><path d="m290.03 98.22c-61.05 0-110.56 49.51-110.56 110.56 0 31.01 12.772 59.05 33.34 79.13l.031.031c.301.293.602.585.906.875.037.037.057.088.094.125.298.291.605.588.906.875.015.016.016.047.031.063l.063.063c.298.291.605.588.906.875.015.016.016.047.031.063.188.189.373.375.563.563.164.166.335.335.5.5.011.01.021.021.031.031.479.49.95.987 1.438 1.469.481.488.978.959 1.469 1.438l.031.031c.301.293.602.585.906.875.015.016.016.047.031.063l.063.063c.298.291.605.588.906.875.015.016.016.047.031.063l.063.063c.298.291.605.588.906.875.036.037.058.088.094.125l.031.031c.479.49.95.987 1.438 1.469.481.488.978.959 1.469 1.438l.031.031c.301.293.602.585.906.875.037.037.057.088.094.125.298.291.605.588.906.875.015.016.016.047.031.063l.063.063c.298.291.605.588.906.875.036.037.058.088.094.125l.031.031c.479.49.95.987 1.438 1.469.481.488.978.959 1.469 1.438l.031.031c.301.293.602.585.906.875.331.332.665.672 1 1 .015.016.016.047.031.063l.063.063c.105.102.207.211.313.313.126.132.279.244.406.375.063.061.124.127.188.188.015.016.016.047.031.063.188.189.373.375.563.563.164.166.335.335.5.5.011.01.021.021.031.031.479.49.95.987 1.438 1.469.481.488.978.959 1.469 1.438l.031.031c.301.293.602.585.906.875.015.016.016.047.031.063l.063.063c.298.291.605.588.906.875.015.016.016.047.031.063l.063.063c.298.291.605.588.906.875.036.037.058.088.094.125.011.01.021.021.031.031.479.49.95.987 1.438 1.469.481.488.978.959 1.469 1.438l.031.031c.301.293.602.585.906.875.015.016.016.047.031.063l.063.063c.298.291.605.588.906.875.015.016.016.047.031.063l.063.063c.102.105.21.208.313.313.094.091.186.19.281.281.133.138.273.269.406.406l.031.031c.479.49.95.987 1.438 1.469.481.488.978.959 1.469 1.438l.031.031c.301.293.602.585.906.875.037.037.057.088.094.125.298.291.605.588.906.875.015.016.016.047.031.063l.063.063c.298.291.605.588.906.875.015.016.016.047.031.063.188.189.373.375.563.563.164.166.335.335.5.5.011.01.021.021.031.031.628.643 1.263 1.278 1.906 1.906l.031.031c.111.108.232.205.344.313.224.228.43.462.656.688.298.291.605.588.906.875.015.016.016.047.031.063l.063.063c.298.291.605.588.906.875.015.016.016.047.031.063.188.189.373.375.563.563.164.166.335.335.5.5.011.01.021.021.031.031.479.49.95.987 1.438 1.469.481.488.978.959 1.469 1.438l.031.031c.301.293.602.585.906.875.015.016.016.047.031.063l.063.063c.298.291.605.588.906.875.015.016.016.047.031.063l.063.063c.298.291.605.588.906.875.036.037.058.088.094.125l.031.031c.479.49.95.987 1.438 1.469.481.488.978.959 1.469 1.438l.031.031c.301.293.602.585.906.875.037.037.057.088.094.125.298.291.605.588.906.875.015.016.016.047.031.063.125.125.25.251.375.375.092.094.189.188.281.281.133.138.273.269.406.406l.031.031c.479.49.95.987 1.438 1.469.481.488.978.959 1.469 1.438l.031.031c.301.293.602.585.906.875.037.037.057.088.094.125.298.291.605.588.906.875.015.016.016.047.031.063l.063.063c.298.291.605.588.906.875.015.016.016.047.031.063.188.189.373.375.563.563.164.166.335.335.5.5.011.01.021.021.031.031.479.49.95.987 1.438 1.469.481.488.978.959 1.469 1.438l.031.031c.301.293.602.585.906.875.015.016.016.047.031.063l.063.063c.298.291.605.588.906.875.015.016.016.047.031.063l.063.063c.298.291.605.588.906.875.036.037.058.088.094.125.011.01.021.021.031.031.479.49.95.987 1.438 1.469.481.488.978.959 1.469 1.438.119.119.255.225.375.344.197.206.395.421.594.625l.063.063c.298.291.605.588.906.875.015.016.016.047.031.063l.063.063c.298.291.605.588.906.875.036.037.058.088.094.125l.031.031c.479.49.95.987 1.438 1.469.481.488.978.959 1.469 1.438l.031.031c.301.293.602.585.906.875.037.037.057.088.094.125.298.291.605.588.906.875.015.016.016.047.031.063.125.125.25.251.375.375.128.13.278.245.406.375.076.079.142.171.219.25.188.189.373.375.563.563.164.166.335.335.5.5.011.01.021.021.031.031.628.643 1.263 1.278 1.906 1.906l.031.031c.301.293.602.585.906.875.037.037.057.088.094.125.298.291.605.588.906.875.015.016.016.047.031.063l.063.063c.298.291.605.588.906.875.015.016.016.047.031.063.188.189.373.375.563.563.164.166.335.335.5.5.011.01.021.021.031.031.479.49.95.987 1.438 1.469.481.488.978.959 1.469 1.438l.031.031c.301.293.602.585.906.875.015.016.016.047.031.063l.063.063c.298.291.605.588.906.875.015.016.016.047.031.063l.063.063c.298.291.605.588.906.875.036.037.058.088.094.125.011.01.021.021.031.031.479.49.95.987 1.438 1.469.481.488.978.959 1.469 1.438l.031.031c.301.293.602.585.906.875.037.037.057.088.094.125.298.291.605.588.906.875.015.016.016.047.031.063l.063.063c.298.291.605.588.906.875.036.037.058.088.094.125l.031.031c.479.49.95.987 1.438 1.469.481.488.978.959 1.469 1.438l.031.031c.109.112.234.201.344.313.191.184.371.379.563.563.037.037.057.088.094.125.298.291.605.588.906.875.015.016.016.047.031.063.125.125.25.251.375.375.128.13.278.245.406.375.076.079.142.171.219.25.188.189.373.375.563.563.164.166.335.335.5.5.011.01.021.021.031.031.479.49.95.987 1.438 1.469.481.488.978.959 1.469 1.438l.031.031c.301.293.602.585.906.875.015.016.016.047.031.063l.063.063c.298.291.605.588.906.875.015.016.016.047.031.063.188.189.373.375.563.563.164.166.335.335.5.5.011.01.021.021.031.031.479.49.95.987 1.438 1.469.481.488.978.959 1.469 1.438l.031.031c.301.293.602.585.906.875.015.016.016.047.031.063l.063.063c.298.291.605.588.906.875.015.016.016.047.031.063l.063.063c.298.291.605.588.906.875.036.037.058.088.094.125l.031.031c.479.49.95.987 1.438 1.469.481.488.978.959 1.469 1.438l.031.031c.301.293.602.585.906.875.037.037.057.088.094.125.298.291.605.588.906.875.015.016.016.047.031.063l.063.063c.298.291.605.588.906.875.015.016.016.047.031.063.188.189.373.375.563.563.164.166.335.335.5.5.011.01.021.021.031.031.628.643 1.263 1.278 1.906 1.906l.031.031c.301.293.602.585.906.875.037.037.057.088.094.125.298.291.605.588.906.875.015.016.016.047.031.063.125.125.25.251.375.375.128.13.278.245.406.375.076.079.142.171.219.25.188.189.373.375.563.563.164.166.335.335.5.5.011.01.021.021.031.031.479.49.95.987 1.438 1.469.481.488.978.959 1.469 1.438l.031.031c.301.293.602.585.906.875.015.016.016.047.031.063l.063.063c.298.291.605.588.906.875.015.016.016.047.031.063l.063.063c.298.291.605.588.906.875.036.037.058.088.094.125.011.01.021.021.031.031.479.49.95.987 1.438 1.469.481.488.978.959 1.469 1.438l.031.031c.301.293.602.585.906.875.015.016.016.047.031.063l.063.063c.298.291.605.588.906.875.015.016.016.047.031.063l.063.063c.298.291.605.588.906.875.036.037.058.088.094.125l.031.031c.479.49.95.987 1.438 1.469.481.488.978.959 1.469 1.438l.031.031c.301.293.602.585.906.875.037.037.057.088.094.125.298.291.605.588.906.875.015.016.016.047.031.063l.063.063c.194.189.397.373.594.563 63.66-38.28 106.25-107.99 106.25-187.69 0-6.601-.303-13.14-.875-19.594-.125-.126-.249-.253-.375-.375-.167-.167-.332-.334-.5-.5-.331-.335-.665-.669-1-1-.202-.205-.422-.391-.625-.594-.29-.304-.582-.606-.875-.906-.037-.037-.088-.057-.125-.094-.287-.301-.585-.577-.875-.875-.104-.104-.208-.209-.313-.313-.192-.186-.369-.378-.563-.563-.037-.036-.057-.089-.094-.125-.331-.331-.665-.673-1-1-.167-.167-.332-.334-.5-.5-.331-.335-.665-.669-1-1-.202-.205-.422-.391-.625-.594-.29-.304-.582-.606-.875-.906-.037-.037-.088-.057-.125-.094-.274-.288-.566-.559-.844-.844-.011-.01-.021-.021-.031-.031-.036-.036-.088-.057-.125-.094-.122-.128-.252-.248-.375-.375-.138-.133-.268-.274-.406-.406-.036-.037-.058-.088-.094-.125-.495-.495-.965-1.014-1.469-1.5-.331-.335-.665-.669-1-1-.202-.205-.422-.391-.625-.594-.29-.304-.582-.606-.875-.906-.037-.037-.088-.057-.125-.094-.259-.252-.52-.501-.781-.75-.015-.016-.016-.047-.031-.063-.021-.021-.041-.042-.063-.063-.036-.036-.088-.057-.125-.094-.122-.128-.252-.248-.375-.375-.138-.133-.268-.274-.406-.406-.036-.037-.058-.088-.094-.125-.328-.328-.637-.676-.969-1-.167-.167-.332-.334-.5-.5-.331-.335-.665-.669-1-1-.202-.205-.422-.391-.625-.594-.287-.301-.584-.608-.875-.906-.037-.037-.088-.057-.125-.094-.618-.633-1.242-1.257-1.875-1.875-.104-.104-.208-.209-.313-.313-.192-.186-.369-.378-.563-.563-.037-.036-.057-.089-.094-.125-.331-.331-.665-.673-1-1-.167-.167-.332-.334-.5-.5-.331-.335-.665-.669-1-1-.202-.205-.422-.391-.625-.594-.29-.304-.582-.606-.875-.906-.037-.037-.088-.057-.125-.094-.267-.28-.543-.536-.813-.813-.021-.021-.041-.042-.063-.063-.328-.328-.637-.676-.969-1-.331-.331-.665-.673-1-1-.167-.167-.332-.334-.5-.5-.331-.335-.665-.669-1-1-.202-.205-.422-.391-.625-.594-.29-.304-.582-.606-.875-.906-.037-.037-.088-.057-.125-.094-.274-.288-.566-.559-.844-.844-.011-.01-.021-.021-.031-.031-.036-.036-.088-.057-.125-.094-.122-.128-.252-.248-.375-.375-.138-.133-.268-.274-.406-.406-.046-.048-.079-.109-.125-.156-.318-.318-.616-.655-.938-.969-.167-.167-.332-.334-.5-.5-.331-.335-.665-.669-1-1-.202-.205-.422-.391-.625-.594-.287-.301-.584-.608-.875-.906-.037-.037-.088-.057-.125-.094-.618-.633-1.242-1.257-1.875-1.875-.109-.109-.203-.235-.313-.344-.187-.181-.374-.352-.563-.531-.037-.036-.057-.089-.094-.125-.331-.331-.665-.673-1-1-.167-.167-.332-.334-.5-.5-.202-.205-.422-.391-.625-.594-.287-.301-.584-.608-.875-.906-.037-.037-.088-.057-.125-.094-.29-.304-.582-.606-.875-.906-.037-.037-.088-.057-.125-.094-.287-.301-.585-.577-.875-.875-.104-.104-.208-.209-.313-.313-.192-.186-.369-.378-.563-.563-.037-.036-.057-.089-.094-.125-.331-.331-.665-.673-1-1-.167-.167-.332-.334-.5-.5-.132-.127-.274-.249-.406-.375-.203-.203-.389-.423-.594-.625-.202-.205-.422-.391-.625-.594-.325-.341-.67-.663-1-1-.264-.277-.545-.538-.813-.813-.021-.021-.041-.042-.063-.063-.036-.036-.088-.057-.125-.094-.122-.128-.252-.248-.375-.375-.138-.133-.268-.274-.406-.406-.036-.037-.058-.088-.094-.125-.328-.328-.637-.676-.969-1-.167-.167-.332-.334-.5-.5-.331-.335-.665-.669-1-1-.202-.205-.422-.391-.625-.594-.29-.304-.582-.606-.875-.906-.037-.037-.088-.057-.125-.094-.274-.288-.566-.559-.844-.844-.011-.01-.021-.021-.031-.031-.036-.036-.088-.057-.125-.094-.122-.128-.252-.248-.375-.375-.138-.133-.268-.274-.406-.406-.036-.037-.058-.088-.094-.125-.328-.328-.637-.676-.969-1-.167-.167-.332-.334-.5-.5-.331-.335-.665-.669-1-1-.202-.205-.422-.391-.625-.594-.287-.301-.584-.608-.875-.906-.037-.037-.088-.057-.125-.094-.618-.633-1.242-1.257-1.875-1.875-.109-.109-.203-.235-.313-.344-.187-.181-.374-.352-.563-.531-.037-.036-.057-.089-.094-.125-.331-.331-.665-.673-1-1-.167-.167-.332-.334-.5-.5-.331-.335-.665-.669-1-1-.202-.205-.422-.391-.625-.594-.29-.304-.582-.606-.875-.906-.037-.037-.088-.057-.125-.094-.277-.29-.564-.556-.844-.844-.011-.01-.021-.021-.031-.031-.328-.328-.637-.676-.969-1-.331-.331-.665-.673-1-1-.167-.167-.332-.334-.5-.5-.331-.335-.665-.669-1-1-.202-.205-.422-.391-.625-.594-.29-.304-.582-.606-.875-.906-.037-.037-.088-.057-.125-.094-.264-.277-.545-.538-.813-.813-.021-.021-.041-.042-.063-.063-.036-.036-.088-.057-.125-.094-.122-.128-.252-.248-.375-.375-.138-.133-.268-.274-.406-.406-.036-.037-.058-.088-.094-.125-.328-.328-.637-.676-.969-1-.167-.167-.332-.334-.5-.5-.331-.335-.665-.669-1-1-.202-.205-.422-.391-.625-.594-.287-.301-.584-.608-.875-.906-.037-.037-.088-.057-.125-.094-.137-.134-.268-.273-.406-.406-.488-.494-.971-.984-1.469-1.469-.104-.104-.208-.209-.313-.313-.192-.186-.369-.378-.563-.563-.037-.036-.057-.089-.094-.125-.222-.222-.463-.436-.688-.656-.074-.071-.144-.148-.219-.219-.037-.036-.057-.089-.094-.125-.167-.167-.332-.334-.5-.5-.202-.205-.422-.391-.625-.594-.287-.301-.584-.608-.875-.906-.037-.037-.088-.057-.125-.094-.29-.304-.582-.606-.875-.906-.037-.037-.088-.057-.125-.094-.391-.4-.79-.793-1.188-1.188-.192-.186-.369-.378-.563-.563-.037-.036-.057-.089-.094-.125-.331-.331-.665-.673-1-1-.167-.167-.332-.334-.5-.5-.331-.335-.665-.669-1-1-.202-.205-.422-.391-.625-.594-.325-.341-.67-.663-1-1-.274-.288-.566-.559-.844-.844-.011-.01-.021-.021-.031-.031-.036-.036-.088-.057-.125-.094-.122-.128-.252-.248-.375-.375-.138-.133-.268-.274-.406-.406-.036-.037-.058-.088-.094-.125-.328-.328-.637-.676-.969-1-.167-.167-.332-.334-.5-.5-.331-.335-.665-.669-1-1-.331-.335-.665-.669-1-1-20.04-20.303-47.875-32.875-78.66-32.875m-108.16 180.59-69.938 58.28c-7.773 6.478-8.286 17.65-1.125 24.813l14.938 14.906c.005.006-.005.026 0 .031l1.938 1.938c.011.012.02.02.031.031l.969.969c.01.011.021.021.031.031l1 .969c.006.006-.006.025 0 .031l.969.969c.01.011.021.021.031.031l.969.969.031.031.938.938c.01.011.02.02.031.031l.969.969.031.031.969.938c.016.017.015.046.031.063l.938.938c.021.023.04.04.063.063l.875.875c.038.044.083.083.125.125l.219.188.688.688c.034.038.057.088.094.125l.094.063.125.125.719.719c.025.027.036.068.063.094l.219.188.594.594.063.063c.036.041.054.086.094.125l.25.219.469.469.125.125c.054.065.095.126.156.188l.219.188.344.344.313.313c.045.052.075.107.125.156l.219.188.219.219.438.438c.043.05.077.109.125.156l.219.188.094.094.063.063v.031l.063.063.719.719.031.031.438.438h.031l.219.219c.043.049.078.109.125.156h.031l.188.188.688.688c.027.029.034.066.063.094l.25.219.563.563.063.063c.046.052.075.106.125.156l.219.188.438.438.188.188c.053.061.098.129.156.188l.219.188.313.313.313.313c.054.063.096.127.156.188l.219.188.188.188.438.438c.053.06.098.13.156.188l.219.188.031.031.625.625c.044.049.078.109.125.156l.125.094.094.094.594.594c.055.064.095.127.156.188h.031l.219.219.625.625c.046.051.076.107.125.156l.219.188.531.531.094.094c.055.063.096.127.156.188l.219.188.406.406.25.25c.046.051.076.107.125.156l.219.188.031.031.031.031.031.031.031.031.031.031.031.031.031.031v.031l.031.031.438.438c.004.005.027-.005.031 0l.031.031.031.031c.006.006-.006.025 0 .031l.219.188.125.125.531.531c.045.05.076.108.125.156l.219.188.063.063.094.094.094.094.031.031.031.031v.031l.031.031.5.5.125.125.313.313h.031l.406.406c.017.017.014.045.031.063l.219.188.625.625.031.031c.046.051.076.107.125.156l.219.188.5.5.156.156c.046.05.076.107.125.156.025.025.219.188.219.188l.344.344.281.281c.055.062.097.128.156.188.024.024.219.188.219.188l.219.219.406.406c.054.06.098.13.156.188.023.023.219.188.219.188l.094.094.344.344c.102.126.226.257.344.375l.156.125.063.063.594.594c.056.062.096.127.156.188l.063.031.188.188.688.688c.026.027.036.067.063.094.021.021.219.188.219.188l.031.031.063.063.094.094.094.094.094.094.063.063.063.063.031.031v.031l.031.031.219.219.063.031.156.156.438.438.188.188c.055.06.098.129.156.188.019.019.219.188.219.188l.313.313c.134.173.308.339.469.5.019.019.219.188.219.188v.031l.156.156.219.219.063.031.313.313c.016.016.015.047.031.063.018.018.219.188.219.188l.031.031.344.344c.116.142.241.273.375.406l.156.125.094.094.063.063.094.094.094.094.094.094c.009.012.022.02.031.031l.063.063.094.094.031.031v.031l.031.031.156.156.188.188.406.406.063.031.219.219c.046.049.077.108.125.156.017.017.219.188.219.188l.531.531c.081.092.162.193.25.281.016.016.219.188.219.188l.406.406c.116.14.243.274.375.406.016.016.219.188.219.188l.25.25.344.344c.063.069.12.152.188.219.016.016.219.188.219.188l.125.125.219.219c.127.157.259.291.406.438.02.02.25.219.25.219l.063.063.094.094.156.156c.009.011.022.02.031.031l.094.094.063.063.031.031.031.031c.067.074.116.147.188.219l.094.094.063.063.031.031.469.469.063.031.25.25c.016.017.015.046.031.063.015.015.219.188.219.188l.625.625c.055.06.098.129.156.188.014.014.219.188.219.188l.031.031.063.063v.031l.063.063.313.313.469.469.031.031.375.344.219.219c.074.082.14.171.219.25.014.014.219.188.219.188l.219.219.094.094c.139.171.308.34.469.5.013.013.219.188.219.188v.031l.063.063.594.594c.005.005.026-.005.031 0l.031.031.031.031c.006.006-.006.026 0 .031l.188.156.063.063.281.281c.143.176.304.335.469.5l.063.031.156.156.063.063v.031l.063.063.563.563c.03.032.063.063.094.094l.094.094.031.031.063.031.031.031.563.563c.074.082.139.171.219.25.012.012.219.188.219.188l.438.438c.108.125.224.255.344.375.012.012.219.188.219.188l.313.313.219.219c.081.09.163.194.25.281.012.012.219.188.219.188l.156.156.375.375c.077.085.136.168.219.25.015.015.25.219.25.219l.031.031.219.219c.154.19.322.353.5.531l.156.125.063.063.063.063.094.094.156.156.125.125.125.125.094.094c.01.011.021.021.031.031v.031l.031.031.063.063.063.031.156.156.656.656c.047.049.077.108.125.156.011.011.219.188.219.188l.531.531c.082.09.163.194.25.281.011.011.219.188.219.188l.031.031.031.031.063.063.063.063.031.031.031.031v.031l.125.125c.053.053.352.321.375.344.016.016.015.047.031.063.011.011.219.188.219.188l.25.25.25.25c.088.098.155.187.25.281.014.014.25.219.25.219l.125.125.375.375c.085.093.16.191.25.281.01.01.219.188.219.188v.031l.844.844.094.094.063.031.75.75c.016.016.015.046.031.063.01.01.219.188.219.188l.063.063.063.063v.031l.031.031.094.094.344.344.094.094c.005.005.026-.005.031 0l.031.031.031.031c.005.005-.005.026 0 .031.01.01.219.188.219.188l.469.469.031.031c.094.104.181.212.281.313.01.01.219.188.219.188l.344.344.125.125c.099.11.206.237.313.344.01.01.219.188.219.188l.031.031.031.031.031.031.031.031.031.031.031.031v.031l.313.313.063.031.094.094c.037.038.056.087.094.125.009.009.219.188.219.188l.031.031.031.031v.031l.031.031.656.656.031.031h.031l.156.156.031.031.5.5c.093.103.182.213.281.313l.063.031.156.156.063.063.094.094v.031l.031.031.094.094.406.406c.005.005.026-.005.031 0l.031.031.031.031c.006.006-.006.026 0 .031.009.009.219.188.219.188l.563.563c.076.082.139.17.219.25.009.009.219.188.219.188l.438.438.031.031c.101.112.204.236.313.344.009.009.219.188.219.188l.031.031.031.031.063.063.063.063.031.031v.031l.063.063.406.406.063.031c.006.006-.006.026 0 .031.011.011.25.219.25.219l.156.156.281.281c.103.114.202.234.313.344.008.008.219.188.219.188l.063.063.094.094.125.125.219.219.219.219.063.063v.031l.031.031.094.094.031.031.063.031.781.781c.006.006-.006.026 0 .031.008.008.219.188.219.188l.656.656c.045.047.078.11.125.156.008.008.219.188.219.188l.031.031v.031l.031.031.438.438.094.094c.005.005.026-.005.031 0l.031.031.063.063c.026.026.036.067.063.094.008.008.219.188.219.188l.031.031.094.094.094.094.031.031v.031l.031.031.094.094.344.344.031.031h.031l.219.219.25.25.156.156c.114.127.222.253.344.375.008.008.219.188.219.188l.031.031.031.031.031.031v.031l.031.031c.109.108.699.699.719.719l.063.031.094.094v.031l.656.625c.047.048.077.108.125.156l.094.063.125.125.594.594c11.384 1.827 23.04 2.813 34.938 2.813 35.419 0 68.868-8.44 98.47-23.375-.068-.101-.122-.212-.188-.313-.025-.016-.038-.046-.063-.063-.032-.021-.062-.042-.094-.063-.041-.063-.084-.124-.125-.188l-.063.063c-.126-.083-.249-.167-.375-.25-.106-.155-.209-.313-.313-.469l.031-.031c-.032-.021-.062-.042-.094-.063-.041-.063-.084-.125-.125-.188-.233-.152-.455-.315-.688-.469-.051-.077-.075-.173-.125-.25l.031-.031c-.044-.029-.081-.065-.125-.094-.049-.075-.108-.144-.156-.219l-.031.031c-.033-.051-.061-.105-.094-.156-.164-.107-.336-.205-.5-.313-.041-.062-.084-.125-.125-.188l.031-.063c-.044-.028-.081-.065-.125-.094-.048-.074-.108-.144-.156-.219l-.094.063c-.08-.12-.14-.254-.219-.375-.126-.082-.249-.167-.375-.25-.013-.019-.018-.043-.031-.063l.031-.031c-.044-.028-.081-.065-.125-.094-.049-.076-.107-.143-.156-.219l-.094.063c-.043-.029-.082-.065-.125-.094-.105-.157-.21-.31-.313-.469-.075-.049-.144-.107-.219-.156l.031-.031c-.043-.028-.082-.065-.125-.094-.049-.076-.107-.143-.156-.219l-.094.063c-.074-.049-.145-.106-.219-.156-.134-.199-.275-.393-.406-.594-.044-.028-.082-.065-.125-.094-.049-.075-.107-.144-.156-.219l-.063.063c-.125-.083-.251-.166-.375-.25-.106-.156-.209-.311-.313-.469l.031-.031c-.043-.028-.082-.065-.125-.094-.021-.032-.042-.062-.063-.094-.007-.005-.024.005-.031 0-.025-.039-.037-.086-.063-.125l-.031.031c-.163-.106-.338-.205-.5-.313-.008-.012-.023-.019-.031-.031-.072-.108-.116-.235-.188-.344l.031-.031c-.044-.029-.081-.065-.125-.094-.049-.075-.107-.144-.156-.219l-.031.031c-.021-.031-.042-.062-.063-.094-.17-.111-.331-.232-.5-.344-.049-.074-.107-.144-.156-.219l.031-.063c-.044-.029-.081-.065-.125-.094-.049-.074-.108-.144-.156-.219l-.063.063c-.07-.105-.15-.206-.219-.313-.127-.082-.249-.167-.375-.25-.021-.031-.042-.062-.063-.094l.031-.063c-.05-.033-.106-.061-.156-.094-.046-.07-.079-.148-.125-.219l-.063.063c-.043-.029-.082-.065-.125-.094-.099-.149-.215-.287-.313-.438-.088-.057-.163-.13-.25-.188l.031-.031c-.043-.028-.082-.065-.125-.094-.049-.075-.107-.143-.156-.219l-.094.063c-.062-.041-.125-.083-.188-.125-.133-.198-.276-.394-.406-.594-.012-.008-.019-.023-.031-.031-.051-.033-.106-.061-.156-.094-.046-.071-.079-.148-.125-.219l-.063.063c-.106-.07-.207-.148-.313-.219-.118-.174-.228-.355-.344-.531-.012-.008-.019-.023-.031-.031-.028-.043-.065-.081-.094-.125-.031-.02-.063-.042-.094-.063-.02-.031-.042-.062-.063-.094l-.031.031c-.156-.102-.314-.21-.469-.313-.003-.005-.028.005-.031 0-.076-.112-.144-.231-.219-.344 0 0 .031-.063.031-.063-.051-.033-.106-.061-.156-.094-.054-.082-.103-.168-.156-.25-.189-.123-.374-.25-.563-.375-.054-.082-.103-.168-.156-.25l.031-.031c-.044-.029-.081-.065-.125-.094-.049-.075-.108-.144-.156-.219l-.063.031c-.054-.082-.103-.168-.156-.25-.181-.118-.351-.256-.531-.375l.063-.063c-.05-.033-.106-.061-.156-.094-.053-.081-.103-.168-.156-.25l-.094.063c-.104-.155-.211-.312-.313-.469-.107-.07-.206-.148-.313-.219l.031-.031c-.043-.028-.082-.065-.125-.094-.049-.075-.107-.144-.156-.219l-.063.063c-.062-.041-.125-.083-.188-.125-.121-.18-.257-.349-.375-.531-.038-.025-.087-.037-.125-.063l.031-.031c-.043-.028-.082-.065-.125-.094-.049-.075-.107-.143-.156-.219l-.063.063c-.105-.07-.208-.148-.313-.219-.117-.173-.261-.325-.375-.5l.031-.031c-.019-.013-.043-.019-.063-.031-.013-.019-.019-.043-.031-.063-.031-.02-.062-.042-.094-.063-.033-.051-.061-.105-.094-.156l-.063.063c-.161-.106-.308-.237-.469-.344-.08-.12-.14-.255-.219-.375l.031-.031c-.044-.029-.081-.065-.125-.094-.044-.067-.112-.12-.156-.188-.176-.115-.356-.228-.531-.344-.075-.113-.144-.23-.219-.344l.031-.031c-.044-.028-.081-.065-.125-.094-.049-.075-.107-.144-.156-.219l-.063.031c-.041-.063-.084-.125-.125-.188-.145-.095-.293-.186-.438-.281-.041-.062-.084-.125-.125-.188 0 0 .031-.063.031-.063-.044-.029-.081-.065-.125-.094-.049-.074-.108-.144-.156-.219l-.063.063c-.019-.013-.043-.018-.063-.031-.082-.124-.169-.25-.25-.375-.108-.07-.205-.148-.313-.219-.013-.019-.019-.043-.031-.063l.031-.031c-.044-.028-.082-.065-.125-.094-.049-.075-.107-.143-.156-.219l-.063.063c-.062-.041-.125-.083-.188-.125-.112-.168-.234-.331-.344-.5-.051-.033-.105-.06-.156-.094l.031-.031c-.044-.028-.081-.065-.125-.094-.049-.076-.107-.143-.156-.219l-.063.063c-.094-.062-.188-.125-.281-.188-.125-.186-.253-.375-.375-.563-.024-.016-.038-.047-.063-.063-.032-.021-.062-.042-.094-.063-.041-.063-.084-.124-.125-.188l-.063.063c-.127-.083-.249-.166-.375-.25-.105-.155-.21-.313-.313-.469l.031-.031c-.031-.02-.062-.042-.094-.063-.041-.063-.084-.125-.125-.188-.208-.135-.419-.269-.625-.406-.067-.101-.121-.212-.188-.313l.031-.031c-.051-.033-.105-.06-.156-.094-.046-.07-.08-.149-.125-.219l-.031.031c-.034-.051-.06-.105-.094-.156-.165-.107-.336-.204-.5-.313-.046-.07-.079-.149-.125-.219l.031-.031c-.044-.029-.081-.065-.125-.094-.049-.075-.108-.144-.156-.219l-.063.063c-.083-.126-.168-.248-.25-.375-.125-.081-.251-.168-.375-.25-.013-.019-.018-.043-.031-.063l.031-.031c-.043-.028-.082-.065-.125-.094-.049-.076-.107-.143-.156-.219l-.063.063c-.031-.021-.063-.042-.094-.063-.12-.18-.257-.349-.375-.531-.071-.046-.148-.079-.219-.125l.031-.031c-.051-.033-.106-.061-.156-.094-.046-.07-.079-.148-.125-.219l-.063.063c-.087-.057-.163-.13-.25-.188-.13-.195-.279-.366-.406-.563-.044-.029-.081-.065-.125-.094-.049-.075-.107-.143-.156-.219l-.063.063c-.126-.083-.25-.166-.375-.25-.106-.157-.208-.31-.313-.469l.031-.031c-.031-.02-.063-.042-.094-.063-.003-.005-.028.005-.031 0-.013-.019-.019-.043-.031-.063-.013-.019-.019-.043-.031-.063-.007-.005-.024.005-.031 0-.025-.039-.037-.086-.063-.125l-.031.031c-.17-.111-.331-.231-.5-.344-.075-.113-.144-.23-.219-.344l.031-.031c-.051-.033-.105-.06-.156-.094-.046-.07-.079-.149-.125-.219l-.031.031c-.021-.032-.042-.062-.063-.094-.176-.114-.357-.228-.531-.344-.046-.069-.079-.149-.125-.219 0 0 .031-.063.031-.063-.044-.029-.081-.065-.125-.094-.049-.074-.108-.144-.156-.219l-.094.063c-.067-.102-.121-.211-.188-.313-.126-.082-.25-.167-.375-.25-.021-.032-.042-.062-.063-.094 0 0 .031-.063.031-.063-.051-.033-.106-.061-.156-.094-.047-.071-.079-.147-.125-.219l-.063.063c-.043-.029-.082-.065-.125-.094-.1-.15-.214-.286-.313-.438-.087-.057-.163-.13-.25-.188l.031-.031c-.043-.028-.082-.065-.125-.094-.049-.075-.107-.143-.156-.219l-.063.063c-.074-.049-.145-.107-.219-.156-.129-.193-.28-.368-.406-.563-.012-.008-.019-.023-.031-.031-.043-.028-.082-.065-.125-.094-.049-.075-.107-.144-.156-.219l-.063.063c-.113-.075-.231-.144-.344-.219-.112-.168-.233-.331-.344-.5l.031-.031c-.032-.021-.062-.042-.094-.063-.021-.031-.042-.062-.063-.094-.012-.008-.019-.023-.031-.031-.029-.044-.065-.081-.094-.125l-.063.031c-.158-.104-.311-.208-.469-.313-.076-.113-.143-.23-.219-.344l.031-.063c-.056-.036-.1-.088-.156-.125-.05-.075-.107-.143-.156-.219-.202-.131-.393-.273-.594-.406-.041-.062-.084-.125-.125-.188l.031-.063c-.044-.028-.081-.065-.125-.094-.049-.075-.108-.144-.156-.219l-.063.031c-.054-.082-.102-.167-.156-.25-.182-.118-.351-.255-.531-.375l.063-.063c-.051-.033-.106-.061-.156-.094-.053-.081-.103-.169-.156-.25l-.094.063c-.104-.157-.21-.311-.313-.469-.107-.07-.206-.149-.313-.219l.031-.031c-.044-.028-.081-.065-.125-.094-.05-.076-.107-.143-.156-.219l-.094.063c-.043-.029-.082-.065-.125-.094-.133-.199-.276-.393-.406-.594-.032-.021-.062-.042-.094-.063-.031-.02-.062-.042-.094-.063-.012-.008-.019-.023-.031-.031-.049-.075-.107-.143-.156-.219l-.063.063c-.095-.063-.187-.124-.281-.188-.154-.231-.317-.455-.469-.688-.044-.029-.081-.065-.125-.094-.02-.031-.042-.062-.063-.094l-.031.031c-.182-.119-.35-.254-.531-.375-.067-.101-.121-.211-.188-.313l.031-.031c-.051-.033-.105-.06-.156-.094-.041-.063-.084-.124-.125-.188-.194-.126-.37-.278-.563-.406-.062-.093-.126-.188-.188-.281l.031-.031c-.051-.033-.105-.06-.156-.094-.046-.07-.08-.149-.125-.219l-.031.031c-.045-.068-.112-.119-.156-.188-.162-.105-.308-.237-.469-.344-.033-.05-.061-.106-.094-.156l.031-.031c-.039-.026-.086-.037-.125-.063-.053-.082-.103-.168-.156-.25l-.094.094c-.096-.145-.186-.291-.281-.438-.107-.069-.206-.149-.313-.219-.013-.019-.018-.043-.031-.063l.031-.031c-.043-.028-.082-.066-.125-.094-.049-.075-.107-.143-.156-.219l-.094.063c-.043-.028-.082-.065-.125-.094-.12-.181-.257-.349-.375-.531-.051-.033-.106-.061-.156-.094l.031-.031c-.043-.028-.082-.065-.125-.094-.05-.076-.107-.143-.156-.219l-.094.063c-.075-.049-.144-.107-.219-.156-.133-.199-.275-.393-.406-.594-.024-.016-.038-.047-.063-.063-.031-.021-.062-.042-.094-.063-.041-.063-.084-.124-.125-.188l-.063.063c-.118-.078-.226-.171-.344-.25-.108-.161-.237-.307-.344-.469l.031-.031c-.032-.021-.062-.042-.094-.063-.041-.063-.084-.124-.125-.188-.207-.135-.419-.269-.625-.406-.067-.101-.121-.211-.188-.313l.031-.031c-.044-.029-.081-.065-.125-.094-.049-.075-.108-.144-.156-.219l-.031.031c-.033-.051-.061-.105-.094-.156-.176-.114-.357-.228-.531-.344-.038-.057-.056-.13-.094-.188l.031-.031c-.04-.026-.085-.037-.125-.063-.053-.081-.103-.169-.156-.25l-.063.063c-.083-.125-.168-.249-.25-.375-.138-.09-.269-.191-.406-.281 0 0 .031-.063.031-.063-.043-.028-.082-.066-.125-.094-.05-.076-.107-.143-.156-.219l-.094.063c-.019-.013-.043-.019-.063-.031-.124-.187-.252-.374-.375-.563-.063-.041-.125-.084-.188-.125v-.031c-.043-.028-.082-.066-.125-.094-.05-.076-.107-.142-.156-.219l-.094.063c-.062-.041-.125-.084-.188-.125-.146-.219-.294-.436-.438-.656-.063-.041-.125-.084-.188-.125-.033-.051-.06-.105-.094-.156l-.063.031c-.125-.083-.251-.167-.375-.25-.099-.149-.214-.288-.313-.438l.031-.031c-.019-.013-.043-.019-.063-.031-.041-.063-.084-.125-.125-.188-.019-.013-.043-.019-.063-.031-.013-.019-.019-.043-.031-.063l-.031.031c-.169-.111-.332-.231-.5-.344-.075-.113-.144-.231-.219-.344l.031-.031c-.031-.02-.062-.042-.094-.063-.057-.087-.131-.163-.188-.25l-.031.031c-.021-.031-.042-.062-.063-.094-.169-.11-.332-.232-.5-.344-.054-.082-.102-.168-.156-.25l.031-.031c-.044-.029-.081-.065-.125-.094-.049-.075-.107-.144-.156-.219l-.063.063c-.07-.107-.149-.205-.219-.313-.126-.082-.25-.167-.375-.25-.021-.031-.042-.063-.063-.094 0 0 .031-.063.031-.063-.044-.028-.082-.065-.125-.094-.057-.086-.131-.163-.188-.25l-.094.094c-.012-.008-.019-.023-.031-.031-.112-.169-.233-.33-.344-.5-.087-.057-.163-.13-.25-.188l.031-.031c-.039-.025-.086-.037-.125-.063-.054-.082-.103-.168-.156-.25l-.094.063c-.05-.033-.106-.06-.156-.094-.141-.212-.299-.412-.438-.625-.012-.008-.019-.023-.031-.031-.043-.028-.082-.065-.125-.094-.049-.075-.107-.143-.156-.219l-.094.063c-.094-.062-.188-.125-.281-.188-.12-.18-.257-.35-.375-.531l.031-.031c-.032-.021-.062-.042-.094-.063-.02-.031-.042-.062-.063-.094-.012-.008-.019-.023-.031-.031-.029-.044-.065-.081-.094-.125l-.031.031c-.17-.111-.332-.231-.5-.344-.071-.106-.149-.206-.219-.313 0 0 .031-.063.031-.063-.051-.033-.106-.061-.156-.094-.054-.082-.103-.167-.156-.25-.188-.122-.377-.251-.563-.375-.054-.081-.102-.168-.156-.25l.031-.031c-.039-.025-.086-.037-.125-.063-.054-.082-.103-.168-.156-.25l-.031.031c-.057-.087-.131-.163-.188-.25-.15-.097-.289-.214-.438-.313-.024-.036-.07-.058-.094-.094 0 0 .031-.063.031-.063-.044-.029-.081-.065-.125-.094-.049-.075-.107-.144-.156-.219l-.094.063c-.103-.156-.211-.312-.313-.469-.106-.069-.207-.149-.313-.219l.031-.031c-.043-.028-.082-.066-.125-.094-.05-.076-.107-.143-.156-.219l-.094.063c-.043-.028-.082-.065-.125-.094-.133-.2-.275-.392-.406-.594-.032-.021-.062-.042-.094-.063-.043-.028-.082-.065-.125-.094-.049-.075-.107-.143-.156-.219l-.094.063c-.082-.054-.168-.102-.25-.156-.128-.193-.248-.4-.375-.594-.007-.005-.024.005-.031 0-.025-.038-.038-.087-.063-.125-.039-.025-.086-.037-.125-.063-.025-.039-.037-.086-.063-.125l-.031.031c-.157-.103-.313-.208-.469-.313-.079-.118-.172-.225-.25-.344l.031-.063c-.044-.029-.081-.065-.125-.094-.049-.075-.108-.144-.156-.219-.202-.131-.394-.272-.594-.406-.049-.074-.107-.144-.156-.219l.031-.063c-.044-.028-.081-.065-.125-.094-.049-.074-.108-.144-.156-.219l-.063.031c-.041-.063-.084-.125-.125-.188-.15-.098-.288-.213-.438-.313-.041-.062-.084-.125-.125-.188l.031-.031c-.032-.021-.062-.042-.094-.063-.057-.086-.131-.163-.188-.25l-.094.094c-.096-.146-.186-.291-.281-.438-.101-.066-.212-.121-.313-.188-.018-.027-.014-.067-.031-.094l.031-.031c-.039-.025-.086-.037-.125-.063-.054-.083-.102-.167-.156-.25l-.094.063c-.051-.033-.106-.06-.156-.094-.117-.176-.229-.354-.344-.531-.051-.033-.106-.06-.156-.094l.031-.031c-.043-.028-.082-.065-.125-.094-.049-.075-.107-.143-.156-.219l-.094.063c-.074-.049-.145-.107-.219-.156-.133-.2-.275-.392-.406-.594-.024-.016-.038-.047-.063-.063-.032-.021-.062-.042-.094-.063-.041-.063-.084-.124-.125-.188l-.063.063c-.15-.099-.288-.212-.438-.313-.055-.082-.102-.168-.156-.25-.033-.05-.06-.106-.094-.156l.031-.031c-.031-.02-.062-.042-.094-.063-.041-.063-.084-.124-.125-.188-.211-.138-.416-.297-.625-.438-.063-.094-.125-.187-.188-.281l.031-.031c-.044-.029-.081-.065-.125-.094-.049-.075-.107-.144-.156-.219l-.031.031c-.033-.051-.061-.105-.094-.156-.181-.118-.352-.255-.531-.375-.029-.043-.065-.082-.094-.125l.031-.063c-.039-.025-.086-.037-.125-.063-.054-.082-.103-.168-.156-.25l-.063.063c-.083-.126-.168-.249-.25-.375-.126-.082-.25-.167-.375-.25-.013-.019-.018-.043-.031-.063l.031-.031c-.043-.028-.082-.066-.125-.094-.05-.075-.107-.143-.156-.219l-.094.063c-.019-.013-.043-.019-.063-.031-.126-.19-.251-.372-.375-.563-.07-.046-.149-.079-.219-.125l.031-.031c-.044-.028-.081-.065-.125-.094-.049-.075-.107-.143-.156-.219l-.094.063c-.063-.041-.125-.084-.188-.125-.145-.218-.295-.437-.438-.656-.063-.041-.125-.084-.188-.125-.033-.051-.06-.105-.094-.156l-.063.031c-.137-.091-.27-.189-.406-.281-.09-.136-.192-.27-.281-.406l.031-.031c-.024-.016-.038-.047-.063-.063-.036-.055-.089-.101-.125-.156-.019-.013-.043-.019-.063-.031-.013-.019-.019-.043-.031-.063l-.031.031c-.17-.111-.332-.231-.5-.344-.075-.112-.144-.231-.219-.344l.031-.031c-.044-.028-.081-.065-.125-.094-.049-.074-.108-.144-.156-.219l-.031.031c-.025-.038-.037-.087-.063-.125-.171-.111-.331-.231-.5-.344-.05-.074-.107-.144-.156-.219l.031-.031c-.044-.029-.081-.065-.125-.094-.049-.075-.108-.144-.156-.219l-.063.063c-.07-.106-.149-.206-.219-.313-.138-.09-.27-.19-.406-.281-.017-.026-.014-.068-.031-.094l.031-.031c-.038-.025-.087-.037-.125-.063-.062-.094-.126-.187-.188-.281l-.094.094c-.019-.013-.043-.019-.063-.031-.109-.165-.205-.334-.313-.5-.087-.057-.163-.13-.25-.188l.031-.031c-.043-.028-.082-.065-.125-.094-.049-.075-.107-.143-.156-.219l-.094.063c-.062-.041-.125-.084-.188-.125-.132-.199-.276-.393-.406-.594-.012-.008-.019-.023-.031-.031-.051-.033-.105-.06-.156-.094-.046-.07-.079-.149-.125-.219l-.094.063c-.118-.079-.226-.17-.344-.25-.104-.157-.209-.311-.313-.469l.031-.031c-.031-.02-.062-.042-.094-.063-.021-.032-.042-.062-.063-.094-.012-.008-.019-.023-.031-.031-.029-.044-.065-.081-.094-.125l-.031.031c-.181-.119-.352-.253-.531-.375-.068-.101-.121-.211-.188-.313l.031-.031c-.039-.025-.086-.037-.125-.063-.054-.082-.103-.168-.156-.25-.008-.012-.023-.019-.031-.031-.188-.122-.377-.25-.563-.375-.054-.081-.102-.168-.156-.25l.031-.031c-.039-.025-.086-.037-.125-.063-.054-.082-.103-.168-.156-.25l-.031.031c-.057-.088-.13-.162-.188-.25-.15-.098-.289-.213-.438-.313-.024-.036-.07-.058-.094-.094 0 0 .031-.063.031-.063-.044-.029-.081-.065-.125-.094-.049-.074-.108-.144-.156-.219l-.063.063c-.019-.013-.043-.018-.063-.031-.096-.145-.186-.292-.281-.438-.107-.07-.206-.148-.313-.219l.031-.031c-.039-.025-.087-.037-.125-.063-.055-.083-.102-.167-.156-.25l-.094.063c-.038-.025-.087-.037-.125-.063-.138-.208-.27-.416-.406-.625-.075-.049-.144-.107-.219-.156-.05-.076-.107-.143-.156-.219l-.063.063c-.106-.071-.208-.147-.313-.219-.116-.176-.229-.355-.344-.531-.007-.005-.024.005-.031 0-.025-.039-.037-.086-.063-.125-.039-.025-.086-.037-.125-.063-.025-.038-.037-.086-.063-.125l-.031.031c-.169-.112-.332-.23-.5-.344-.013-.019-.018-.043-.031-.063-.063-.093-.125-.187-.188-.281l.031-.031c-.044-.028-.081-.065-.125-.094-.049-.075-.107-.144-.156-.219-.19-.124-.374-.248-.563-.375-.063-.093-.125-.188-.188-.281l.031-.031c-.039-.025-.086-.037-.125-.063-.054-.082-.103-.168-.156-.25l-.031.031c-.049-.074-.108-.144-.156-.219-.158-.103-.312-.207-.469-.313-.029-.043-.065-.082-.094-.125 0 0 .031-.063.031-.063-.044-.029-.081-.065-.125-.094-.049-.075-.107-.144-.156-.219l-.063.063c-.019-.013-.043-.019-.063-.031-.083-.126-.168-.249-.25-.375-.102-.066-.211-.12-.313-.188-.018-.026-.014-.067-.031-.094l.031-.031c-.043-.028-.082-.066-.125-.094-.049-.075-.107-.143-.156-.219l-.094.063c-.043-.028-.082-.065-.125-.094-.12-.181-.257-.349-.375-.531-.051-.033-.105-.06-.156-.094l.031-.031c-.043-.028-.082-.066-.125-.094-.05-.075-.107-.143-.156-.219l-.094.063c-.082-.054-.169-.102-.25-.156-.129-.195-.248-.398-.375-.594-.024-.016-.038-.047-.063-.063-.032-.021-.062-.042-.094-.063-.041-.063-.084-.124-.125-.188l-.063.063c-.149-.099-.29-.211-.438-.313-.029-.043-.065-.082-.094-.125-.06-.088-.097-.192-.156-.281l.031-.031c-.032-.021-.062-.042-.094-.063-.041-.063-.084-.124-.125-.188-.212-.138-.416-.296-.625-.438-.063-.093-.126-.188-.188-.281l.031-.031c-.031-.02-.062-.042-.094-.063-.057-.086-.131-.163-.188-.25l-.031.031c-.033-.051-.061-.105-.094-.156-.181-.118-.352-.254-.531-.375-.029-.043-.065-.082-.094-.125 0-.001.031-.063.031-.063-.044-.029-.081-.065-.125-.094-.049-.075-.107-.144-.156-.219l-.063.063c-.083-.127-.167-.248-.25-.375-.126-.082-.25-.166-.375-.25-.013-.019-.019-.043-.031-.063l.031-.031c-.043-.028-.082-.066-.125-.094-.057-.086-.131-.163-.188-.25l-.094.063c-.019-.013-.043-.019-.063-.031-.116-.176-.229-.355-.344-.531-.068-.044-.12-.112-.188-.156-.043-.028-.082-.066-.125-.094-.049-.075-.107-.144-.156-.219l-.094.063c-.062-.041-.125-.084-.188-.125-.146-.22-.294-.435-.438-.656-.056-.036-.1-.088-.156-.125-.037-.056-.089-.1-.125-.156l-.063.031c-.125-.084-.251-.165-.375-.25-.098-.148-.215-.289-.313-.438l.031-.031c-.019-.013-.043-.019-.063-.031-.041-.062-.084-.125-.125-.188-.02-.013-.043-.018-.063-.031-.013-.019-.019-.043-.031-.063l-.031.031c-.183-.12-.351-.252-.531-.375-.068-.101-.12-.211-.188-.313l.031-.031c-.044-.029-.081-.065-.125-.094-.05-.075-.107-.143-.156-.219l-.031.031c-.025-.039-.037-.086-.063-.125-.183-.119-.351-.253-.531-.375-.041-.062-.084-.126-.125-.188l.031-.031c-.044-.028-.081-.065-.125-.094-.049-.074-.108-.144-.156-.219l-.063.031c-.069-.106-.15-.206-.219-.313-.147-.096-.292-.183-.438-.281-.017-.026-.014-.068-.031-.094l.031-.031c-.039-.026-.086-.037-.125-.063-.054-.081-.103-.168-.156-.25l-.094.063c-.02-.013-.043-.018-.063-.031-.103-.156-.21-.312-.313-.469-.088-.057-.163-.13-.25-.188l.031-.031c-.043-.028-.082-.065-.125-.094-.05-.076-.107-.143-.156-.219l-.094.063c-.063-.041-.125-.084-.188-.125-.133-.201-.275-.392-.406-.594-.012-.008-.019-.023-.031-.031-.043-.028-.082-.066-.125-.094-.049-.075-.107-.143-.156-.219l-.063.063c-.101-.066-.212-.121-.313-.188-.119-.179-.257-.351-.375-.531l.031-.031c-.031-.02-.062-.042-.094-.063-.02-.031-.042-.062-.063-.094-.012-.008-.019-.023-.031-.031-.029-.043-.065-.081-.094-.125l-.063.031c-.158-.104-.313-.205-.469-.313-.082-.119-.138-.254-.219-.375l.031-.031c-.051-.033-.105-.06-.156-.094-.054-.083-.102-.167-.156-.25-.2-.13-.397-.271-.594-.406-.047-.069-.079-.149-.125-.219l.031-.031c-.039-.026-.086-.037-.125-.063-.054-.082-.103-.168-.156-.25l-.031.031c-.057-.087-.131-.163-.188-.25-.163-.106-.308-.235-.469-.344-.021-.031-.042-.063-.063-.094l.031-.031c-.044-.029-.081-.065-.125-.094-.048-.073-.108-.145-.156-.219l-.094.063c-.103-.157-.21-.311-.313-.469-.106-.069-.207-.148-.313-.219l.031-.031c-.044-.028-.082-.065-.125-.094-.05-.075-.107-.143-.156-.219l-.094.063c-.043-.028-.082-.065-.125-.094-.132-.2-.276-.393-.406-.594-.075-.049-.144-.106-.219-.156-.05-.075-.107-.143-.156-.219l-.063.063c-.106-.072-.208-.146-.313-.219-.116-.176-.229-.355-.344-.531-.007-.005-.024.005-.031 0-.025-.039-.037-.086-.063-.125-.039-.025-.086-.037-.125-.063-.026-.039-.037-.086-.063-.125l-.031.031c-.17-.113-.332-.227-.5-.344-.07-.106-.149-.207-.219-.313.001-.001.031-.063.031-.063-.044-.028-.081-.065-.125-.094-.049-.075-.108-.144-.156-.219-.202-.132-.395-.269-.594-.406-.05-.074-.107-.145-.156-.219.001-.001.031-.063.031-.063-.039-.025-.086-.037-.125-.063-.054-.082-.103-.168-.156-.25l-.031.031c-.049-.075-.107-.144-.156-.219-.159-.104-.312-.205-.469-.313-.034-.05-.06-.106-.094-.156l.031-.031c-.039-.026-.086-.037-.125-.063-.054-.081-.103-.168-.156-.25l-.094.063c-.094-.144-.187-.293-.281-.438-.121-.079-.224-.169-.344-.25l.031-.031c-.043-.028-.082-.065-.125-.094-.051-.077-.106-.142-.156-.219l-.094.063c-.043-.028-.082-.065-.125-.094-.12-.182-.256-.348-.375-.531-.052-.034-.105-.06-.156-.094l.031-.031c-.044-.028-.082-.065-.125-.094-.05-.075-.107-.143-.156-.219l-.094.063c-.082-.054-.168-.102-.25-.156-.13-.196-.247-.397-.375-.594-.024-.016-.038-.047-.063-.063-.032-.021-.062-.042-.094-.063-.042-.063-.084-.124-.125-.188l-.063.031c-.162-.109-.309-.231-.469-.344-.07-.105-.149-.207-.219-.313.002-.003.031-.063.031-.063-.051-.033-.106-.061-.156-.094-.033-.051-.061-.106-.094-.156-.013-.019-.019-.043-.031-.063l-.031.031c-.19-.124-.345-.277-.531-.406-.063-.091-.126-.189-.188-.281l.031-.031c-.031-.02-.062-.042-.094-.063-.057-.085-.132-.164-.188-.25l-.031.031c-.033-.051-.06-.105-.094-.156-.182-.119-.352-.251-.531-.375-.029-.042-.065-.082-.094-.125.003-.004.031-.063.031-.063-.044-.029-.081-.065-.125-.094-.049-.074-.108-.144-.156-.219l-.063.063c-.082-.125-.168-.249-.25-.375-.143-.093-.266-.217-.406-.313l.031-.031c-.043-.028-.082-.066-.125-.094-.057-.085-.132-.164-.188-.25l-.094.063c-.019-.013-.043-.019-.063-.031-.116-.177-.228-.354-.344-.531-.069-.045-.15-.079-.219-.125l.031-.031c-.043-.028-.082-.065-.125-.094-.051-.076-.106-.142-.156-.219l-.094.063c-.063-.041-.125-.084-.188-.125-.145-.219-.294-.436-.438-.656-.055-.036-.101-.089-.156-.125-.037-.055-.089-.101-.125-.156l-.063.063c-.116-.079-.229-.169-.344-.25-.107-.162-.238-.307-.344-.469l.031-.031c-.024-.016-.038-.047-.063-.063-.036-.056-.089-.1-.125-.156-.019-.012-.043-.019-.063-.031-.013-.019-.019-.043-.031-.063l-.031.031c-.178-.117-.357-.252-.531-.375-.15-.215-.295-.437-.438-.656l-.031.031c-.025-.039-.037-.086-.063-.125-.168-.109-.335-.229-.5-.344-.132-.191-.28-.368-.406-.563l-.063.063c-.074-.113-.145-.23-.219-.344-.133-.087-.275-.16-.406-.25-.104-.151-.213-.315-.313-.469l-.094.094c-.123-.187-.253-.375-.375-.563-.108-.07-.206-.146-.313-.219-.064-.096-.125-.185-.188-.281l-.094.094c-.031-.022-.063-.04-.094-.063-.161-.243-.341-.474-.5-.719-.063-.041-.125-.083-.188-.125-.042-.063-.083-.124-.125-.188l-.063.063c-.142-.097-.268-.211-.406-.313-.033-.051-.06-.106-.094-.156-.104-.148-.213-.287-.313-.438-.012-.008-.019-.023-.031-.031-.029-.044-.065-.081-.094-.125l-.031.031c-.192-.128-.376-.271-.563-.406-.147-.222-.293-.433-.438-.656-.193-.126-.375-.273-.563-.406-.131-.186-.282-.372-.406-.563l-.031.031c-.057-.087-.131-.163-.188-.25-.162-.105-.311-.233-.469-.344-.101-.146-.215-.288-.313-.438l-.094.063c-.103-.157-.21-.311-.313-.469-.123-.08-.223-.197-.344-.281-.067-.099-.154-.181-.219-.281l-.094.063c-.042-.031-.083-.063-.125-.094-.133-.201-.275-.392-.406-.594-.076-.049-.144-.106-.219-.156-.05-.075-.107-.143-.156-.219l-.063.063c-.117-.082-.23-.165-.344-.25-.136-.207-.271-.417-.406-.625-.031-.02-.063-.042-.094-.063-.029-.044-.065-.081-.094-.125l-.031.031c-.147-.1-.294-.207-.438-.313-.175-.239-.369-.47-.531-.719-.193-.125-.377-.272-.563-.406-.143-.199-.304-.388-.438-.594l-.031.031c-.049-.074-.108-.144-.156-.219-.151-.098-.291-.208-.438-.313-.118-.166-.264-.329-.375-.5l-.094.063c-.095-.145-.187-.292-.281-.438-.127-.083-.251-.163-.375-.25-.085-.122-.169-.25-.25-.375l-.125.094c-.012-.009-.02-.022-.031-.031-.136-.207-.271-.417-.406-.625-.083-.054-.168-.1-.25-.156-.057-.083-.101-.166-.156-.25l-.063.063c-.104-.075-.211-.14-.313-.219-.136-.207-.271-.418-.406-.625-.045-.029-.081-.064-.125-.094-.029-.044-.065-.081-.094-.125l-.031.031c-.151-.105-.292-.2-.438-.313-.181-.239-.367-.467-.531-.719l-.031.031c-.206-.136-.367-.318-.563-.469-.136-.184-.281-.37-.406-.563l-.031.031c-.033-.051-.06-.105-.094-.156-.167-.109-.341-.225-.5-.344-.127-.172-.258-.351-.375-.531l-.063.063c-.083-.126-.168-.249-.25-.375-.136-.088-.276-.186-.406-.281-.095-.132-.192-.269-.281-.406l-.125.094c-.13-.197-.246-.396-.375-.594-.093-.06-.191-.124-.281-.188-.065-.093-.126-.186-.188-.281l-.063.063c-.082-.063-.17-.121-.25-.188-.132-.2-.275-.393-.406-.594-.051-.033-.106-.059-.156-.094-.043-.062-.084-.124-.125-.188l-.063.031c-.156-.114-.322-.218-.469-.344-.128-.195-.248-.398-.375-.594-.037-.024-.057-.069-.094-.094h-.031c-.168-.115-.343-.215-.5-.344-.17-.21-.321-.429-.469-.656l-.031.031c-.025-.039-.037-.086-.063-.125-.202-.131-.377-.285-.563-.438-.119-.154-.237-.305-.344-.469l-.063.031c-.069-.106-.15-.206-.219-.313-.139-.09-.276-.18-.406-.281-.107-.138-.217-.291-.313-.438l-.094.094c-.011-.01-.02-.021-.031-.031-.116-.176-.229-.354-.344-.531-.095-.062-.191-.12-.281-.188-.08-.106-.146-.201-.219-.313l-.094.063c-.084-.074-.171-.139-.25-.219-.115-.175-.23-.356-.344-.531-.082-.053-.141-.129-.219-.188-.03-.043-.065-.081-.094-.125l-.031.031c-.328-.263-.6-.562-.844-.906-.454-.295-.83-.671-1.125-1.125-.008-.012-.023-.019-.031-.031-.378-.246-.723-.59-.969-.969l-.031.031c-.057-.088-.13-.162-.188-.25-.303-.197-.584-.478-.781-.781l-.094.063c-.104-.158-.21-.311-.313-.469-.227-.148-.415-.335-.563-.563l-.125.094c-.161-.245-.34-.473-.5-.719-.151-.099-.277-.224-.375-.375l-.188.156c-.213-.321-.415-.646-.625-.969-.076-.049-.138-.112-.188-.188l-.219.188c-.261-.392-.524-.792-.781-1.188" fill-opacity=".235"/><g fill-rule="evenodd"><path d="m256 1c-140.83 0-255 114.17-255 255s114.17 255 255 255 255-114.17 255-255-114.17-255-255-255m8.827 44.931c120.9 0 218.9 98 218.9 218.9s-98 218.9-218.9 218.9-218.93-98-218.93-218.9 98.03-218.9 218.93-218.9" fill-opacity=".067"/><g fill-opacity=".129"><path d="m256 4.433c-138.94 0-251.57 112.63-251.57 251.57s112.63 251.57 251.57 251.57 251.57-112.63 251.57-251.57-112.63-251.57-251.57-251.57m5.885 38.556c120.9 0 218.9 98 218.9 218.9s-98 218.9-218.9 218.9-218.93-98-218.93-218.9 98.03-218.9 218.93-218.9"/><path d="m256 8.356c-136.77 0-247.64 110.87-247.64 247.64s110.87 247.64 247.64 247.64 247.64-110.87 247.64-247.64-110.87-247.64-247.64-247.64m2.942 31.691c120.9 0 218.9 98 218.9 218.9s-98 218.9-218.9 218.9-218.93-98-218.93-218.9 98.03-218.9 218.93-218.9"/></g><path d="m253.04 7.859c-135.42 0-245.19 109.78-245.19 245.19 0 135.42 109.78 245.19 245.19 245.19 135.42 0 245.19-109.78 245.19-245.19 0-135.42-109.78-245.19-245.19-245.19zm0 26.297c120.9 0 218.9 98 218.9 218.9s-98 218.9-218.9 218.9-218.93-98-218.93-218.9 98.03-218.9 218.93-218.9z" fill="#fff" stroke="#000" stroke-opacity=".31" stroke-width="4.904"/></g><text x="729.64001" y="231.36"><tspan x="729.64001" y="231.36"/></text><text transform="scale(4.0128 .2492)" x="378.91" y="579.25"/><text x="1310.91" y="151.36"><tspan x="1310.91" y="151.36"/></text><text transform="scale(4.0128 .2492)" x="523.76001" y="258.22"/><text x="239.33" y="-29.900999"><tspan x="239.33" y="-29.900999"/></text><text transform="scale(4.0128 .2492)" x="256.72" y="-469.14001"/><text x="1337.38" y="-246.37"><tspan x="1337.38" y="-246.37"/></text><text transform="scale(4.0128 .2492)" x="530.35999" y="-1337.8101"/><text x="1918.65" y="-326.38"><tspan x="1918.65" y="-326.38"/></text><text transform="scale(4.0128 .2492)" x="675.21002" y="-1658.85"/><text x="1529.53" y="-798.78003"><tspan x="1529.53" y="-798.78003"/></text><text transform="scale(4.0128 .2492)" x="578.23999" y="-3554.51"/><text x="2110.79" y="-878.78003"><tspan x="2110.79" y="-878.78003"/></text><text transform="scale(4.0128 .2492)" x="723.09003" y="-3875.54"/><text x="277.98999" y="535.94"><tspan x="277.98999" y="535.94"/></text><g fill="#fff" transform="matrix(-.57581 0 0 .57581 400.58 98.22)"><path d="m501.25 414.85-121.44-101.22c-17.188 26.438-39.75 49-66.16 66.19l101.19 121.44c11.25 13.5 30.656 14.406 43.09 1.969l45.28-45.28c12.437-12.439 11.531-31.845-1.969-43.1"/><path d="m384 192c0-106.03-85.97-192-192-192s-192 85.969-192 192 85.969 192 192 192 192-85.97 192-192m-192 144c-79.41 0-144-64.59-144-144s64.59-144 144-144 144 64.59 144 144c.001 79.41-64.59 144-144 144"/></g></svg>